<svg xmlns="http://www.w3.org/2000/svg" xmlns:xlink="http://www.w3.org/1999/xlink" fill="none" version="1.1" width="130.04864501953125" height="24.09716796875" viewBox="0 0 130.04864501953125 24.09716796875"><g><g><path d="M32.252201080322266,21.653128163909912L32.252201080322266,3.7936091639099123L35.67785108032226,3.7936091639099123L43.318101080322265,16.407728163909912L41.507951080322265,16.407728163909912L49.005201080322266,3.7936091639099123L52.431301080322264,3.7936091639099123L52.466901080322266,21.653128163909912L48.580301080322265,21.653128163909912L48.54470108032227,9.750628163909912L49.27670108032227,9.750628163909912L43.27240108032227,19.753128163909913L41.41103108032227,19.753128163909913L35.27858108032227,9.750628163909912L36.13880108032227,9.750628163909912L36.13880108032227,21.653128163909912L32.252201080322266,21.653128163909912ZM63.284501080322265,21.846828163909912Q60.92250108032226,21.846828163909912,59.152401080322264,20.933528163909912Q57.382301080322264,20.020228163909913,56.40880108032226,18.42082816390991Q55.435201080322265,16.82152816390991,55.435201080322265,14.785628163909912Q55.435201080322265,12.729338163909912,56.387901080322266,11.135148163909912Q57.34110108032226,9.540938163909912,59.008601080322265,8.637998163909913Q60.676601080322264,7.734658163909912,62.77750108032227,7.734658163909912Q64.80710108032227,7.734658163909912,66.43100108032226,8.589768163909913Q68.05530108032227,9.444468163909912,69.00290108032226,11.036678163909912Q69.95080108032226,12.628488163909912,69.95080108032226,14.846928163909912Q69.95080108032226,15.076228163909912,69.93280108032226,15.369228163909913Q69.91510108032227,15.662228163909912,69.88950108032228,15.907028163909912L58.68150108032226,15.907028163909912L58.68150108032226,13.587628163909912L67.77260108032226,13.587628163909912L66.22800108032226,14.281328163909912Q66.24360108032226,13.218488163909912,65.80190108032227,12.421588163909911Q65.36020108032227,11.624288163909911,64.59240108032228,11.174608163909912Q63.82470108032227,10.724538163909912,62.79750108032226,10.724538163909912Q61.77070108032227,10.724538163909912,60.990201080322265,11.174608163909912Q60.20970108032226,11.624288163909911,59.78080108032226,12.429158163909912Q59.351901080322264,13.234028163909912,59.351901080322264,14.327528163909912L59.351901080322264,14.948628163909913Q59.351901080322264,16.07282816390991,59.849601080322266,16.918328163909912Q60.34780108032227,17.76392816390991,61.26170108032227,18.221528163909912Q62.17560108032227,18.678828163909913,63.402201080322264,18.678828163909913Q64.49990108032227,18.678828163909913,65.32890108032227,18.346728163909912Q66.15790108032226,18.01462816390991,66.86550108032228,17.334928163909915L68.99290108032227,19.63232816390991Q68.02930108032226,20.713928163909912,66.59960108032226,21.280428163909914Q65.16990108032226,21.846828163909912,63.284501080322265,21.846828163909912ZM78.26700108032227,21.846828163909912Q75.81930108032228,21.846828163909912,74.46730108032227,20.61822816390991Q73.11570108032227,19.389228163909912,73.11570108032227,16.93712816390991L73.11570108032227,4.882318163909912L77.11410108032226,4.882318163909912L77.11410108032226,16.87052816390991Q77.11410108032226,17.73912816390991,77.56820108032227,18.219528163909914Q78.02270108032226,18.69992816390991,78.81370108032226,18.69992816390991Q79.77320108032227,18.69992816390991,80.44560108032226,18.194028163909913L81.50480108032227,20.998928163909913Q80.90010108032226,21.42792816390991,80.04190108032228,21.637528163909913Q79.18370108032227,21.846828163909912,78.26700108032227,21.846828163909912ZM70.97680108032228,11.286628163909912L70.97680108032228,8.231778163909912L80.54130108032226,8.231778163909912L80.54130108032226,11.286628163909912L70.97680108032228,11.286628163909912ZM92.21590108032227,21.653128163909912L92.21590108032227,18.97822816390991L91.97600108032226,18.376228163909914L91.97600108032226,13.589628163909913Q91.97600108032226,12.307178163909912,91.19310108032226,11.602358163909912Q90.41060108032227,10.897148163909911,88.78460108032226,10.897148163909911Q87.69700108032227,10.897148163909911,86.63010108032226,11.236798163909912Q85.56360108032226,11.576048163909912,84.80960108032227,12.163258163909912L83.38190108032227,9.393438163909913Q84.51920108032226,8.581788163909913,86.10510108032227,8.158428163909912Q87.69100108032227,7.734658163909912,89.33130108032226,7.734658163909912Q92.49660108032226,7.734658163909912,94.23550108032227,9.211258163909912Q95.97440108032227,10.687458163909913,95.97440108032227,13.813228163909912L95.97440108032227,21.653128163909912L92.21590108032227,21.653128163909912ZM88.02660108032227,21.846828163909912Q86.41790108032227,21.846828163909912,85.26450108032228,21.306328163909914Q84.11110108032227,20.765328163909913,83.49840108032227,19.821728163909913Q82.88570108032226,18.877728163909914,82.88570108032226,17.694128163909912Q82.88570108032226,16.480628163909913,83.48480108032226,15.559728163909913Q84.08390108032226,14.638428163909913,85.39020108032227,14.115428163909913Q86.69700108032227,13.592028163909912,88.79830108032226,13.592028163909912L92.44700108032227,13.592028163909912L92.44700108032227,15.911328163909912L89.24160108032227,15.911328163909912Q87.82390108032226,15.911328163909912,87.30050108032226,16.366628163909912Q86.77710108032227,16.82152816390991,86.77710108032227,17.53142816390991Q86.77710108032227,18.277728163909913,87.37300108032227,18.727828163909912Q87.96890108032227,19.177528163909912,89.01170108032227,19.177528163909912Q90.01890108032227,19.177528163909912,90.82030108032227,18.712328163909913Q91.62160108032226,18.24702816390991,91.97600108032226,17.31182816390991L92.57990108032226,19.15992816390991Q92.15420108032227,20.469928163909913,91.00010108032227,21.158428163909914Q89.84630108032226,21.846828163909912,88.02660108032227,21.846828163909912ZM105.76550108032227,21.95372816390991Q103.61820108032227,21.95372816390991,101.64030108032226,21.38202816390991Q99.66230108032227,20.809928163909913,98.45850108032226,19.901028163909913L99.86540108032227,16.77522816390991Q101.00750108032227,17.592028163909912,102.59140108032227,18.115528163909914Q104.17570108032227,18.63892816390991,105.78600108032227,18.63892816390991Q107.02860108032226,18.63892816390991,107.78350108032227,18.393328163909914Q108.53840108032226,18.147428163909915,108.89280108032227,17.715228163909913Q109.24730108032226,17.282728163909912,109.24730108032226,16.730228163909914Q109.24730108032226,16.01462816390991,108.67780108032227,15.587628163909912Q108.10870108032226,15.160728163909912,107.18560108032227,14.892428163909912Q106.26290108032227,14.624128163909912,105.15000108032227,14.384128163909912Q104.03750108032227,14.144128163909912,102.91980108032226,13.794928163909912Q101.80200108032227,13.445318163909912,100.87900108032227,12.881628163909912Q99.95630108032226,12.317938163909911,99.38720108032227,11.391878163909912Q98.81810108032226,10.465808163909912,98.81810108032226,9.037048163909912Q98.81810108032226,7.517398163909912,99.64510108032226,6.260058163909912Q100.47250108032226,5.002718163909912,102.15290108032227,4.248070163909912Q103.83320108032227,3.493028163909912,106.38470108032226,3.493028163909912Q108.06510108032226,3.493028163909912,109.70980108032226,3.891278163909912Q111.35490108032226,4.289530163909912,112.60960108032226,5.064908163909912L111.31570108032227,8.195898163909913Q110.07580108032226,7.486698163909912,108.80950108032226,7.147448163909912Q107.54320108032226,6.807798163909912,106.34900108032227,6.807798163909912Q105.13720108032227,6.807798163909912,104.37710108032226,7.084068163909912Q103.61700108032227,7.360328163909912,103.27540108032227,7.815588163909912Q102.93380108032227,8.270848163909912,102.93380108032227,8.838518163909912Q102.93380108032227,9.544128163909912,103.50290108032226,9.966298163909912Q104.07230108032226,10.388068163909912,104.99500108032227,10.643608163909912Q105.91810108032226,10.899138163909912,107.03580108032227,11.141918163909912Q108.15360108032226,11.38429816390991,109.26610108032227,11.726338163909912Q110.37900108032227,12.067978163909912,111.30170108032226,12.624098163909911Q112.22480108032227,13.179818163909912,112.79380108032227,14.100728163909912Q113.36330108032226,15.021628163909913,113.36330108032226,16.424828163909915Q113.36330108032226,17.91932816390991,112.52830108032227,19.176728163909914Q111.69330108032227,20.433628163909912,110.01010108032227,21.193828163909913Q108.32740108032226,21.95372816390991,105.76550108032227,21.95372816390991ZM122.48570108032227,21.846828163909912Q120.29470108032227,21.846828163909912,118.58990108032226,20.93872816390991Q116.88550108032227,20.03022816390991,115.90430108032227,18.433228163909913Q114.92320108032227,16.835828163909913,114.92320108032227,14.782828163909912Q114.92320108032227,12.714198163909913,115.90710108032226,11.126768163909912Q116.89150108032227,9.539348163909912,118.58950108032226,8.637208163909913Q120.28790108032227,7.734658163909912,122.48570108032227,7.734658163909912Q124.68390108032227,7.734658163909912,126.39550108032226,8.636008163909912Q128.10760108032227,9.537358163909913,129.07790108032225,11.123188163909912Q130.04860108032227,12.708618163909913,130.04860108032227,14.783228163909913Q130.04860108032227,16.84142816390991,129.07990108032226,18.43602816390991Q128.11160108032226,20.03022816390991,126.39390108032227,20.93872816390991Q124.67630108032226,21.846828163909912,122.48570108032227,21.846828163909912ZM122.48570108032227,18.587928163909915Q123.49770108032227,18.587928163909915,124.28860108032227,18.135428163909914Q125.07960108032226,17.682928163909914,125.54170108032227,16.81952816390991Q126.00430108032226,15.955628163909912,126.00430108032226,14.783628163909912Q126.00430108032226,13.590028163909912,125.54170108032227,12.744098163909912Q125.07960108032226,11.898158163909912,124.28860108032227,11.445688163909912Q123.49770108032227,10.993228163909912,122.49370108032227,10.993228163909912Q121.48930108032226,10.993228163909912,120.69840108032227,11.445688163909912Q119.90750108032226,11.898158163909912,119.43730108032227,12.744098163909912Q118.96750108032226,13.590028163909912,118.96750108032226,14.783628163909912Q118.96750108032226,15.955628163909912,119.43730108032227,16.81952816390991Q119.90750108032226,17.682928163909914,120.69720108032226,18.135428163909914Q121.48730108032227,18.587928163909915,122.48570108032227,18.587928163909915Z" fill="#002E33" fill-opacity="1"/></g><g><path d="M24.18524501953125,12.048583984375Q24.18524501953125,8.611843984375,22.37514501953125,5.704853984375L20.59474501953125,6.813433984375Q22.08784501953125,9.211443984375,22.08784501953125,12.048583984375Q22.08784501953125,16.169383984375,19.16184501953125,19.083783984375Q16.23404501953125,21.999883984375,12.09264501953125,21.999883984375Q7.95119501953125,21.999883984375,5.023385019531251,19.083783984375Q2.09731501953125,16.169383984375,2.09731501953125,12.048583984375Q2.09731501953125,7.927833984375,5.023385019531251,5.013403984375Q7.95119501953125,2.097253984375,12.09264501953125,2.097253984375Q14.38694501953125,2.097253984375,16.43574501953125,3.082973984375L17.34504501953125,1.193008984375Q14.86534501953125,-0.00008601562499999105,12.09264501953125,-0.00008601562499999105Q7.08489501953125,-0.00008601562499999105,3.54330501953125,3.527403984375Q-0.000024980468749991047,7.056633984375,-0.000024980468749991047,12.048583984375Q-0.000024980468749991047,17.040583984375,3.54330501953125,20.569783984375Q7.08489501953125,24.097283984375,12.09264501953125,24.097283984375Q17.10034501953125,24.097283984375,20.64194501953125,20.569783984375Q24.18524501953125,17.040583984375,24.18524501953125,12.048583984375Z" fill-rule="evenodd" fill="#002E33" fill-opacity="1"/></g><g><ellipse cx="9.988990068435669" cy="14.143821716308594" rx="7.888539791107178" ry="7.857142448425293" fill-opacity="0" stroke-opacity="1" stroke="#002E33" fill="none" stroke-width="2.0973429679870605"/></g><g><ellipse cx="8.235981464385986" cy="16.413662910461426" rx="5.083725929260254" ry="5.238095283508301" fill-opacity="0" stroke-opacity="1" stroke="#002E33" fill="none" stroke-width="1.7477856874465942"/></g><g><ellipse cx="20.156441926956177" cy="4.191441297531128" rx="2.9801151752471924" ry="3.142857313156128" fill-opacity="0" stroke-opacity="1" stroke="#002E33" fill="none" stroke-width="2.0973429679870605"/></g></g></svg>