<svg xmlns="http://www.w3.org/2000/svg" fill="none" width="27.672" height="5.537" viewBox="0 0 27.672 5.537"><path d="M12.402.155h.047v3.03q0 .468.187.897.179.412.505.728.324.315.743.487.434.178.906.178v-1.18q-.486 0-.827-.332-.334-.324-.334-.779v-1.11h1.161V.894h-1.16v-.74h.046V0l-1.274.155ZM3.616 5.01l1.24-2.309.207 2.783 1.177-.088L5.881.57h-1.22L3.122 3.44 1.577.57H.36L0 5.396l1.177.088.207-2.783 1.24 2.31h.992ZM7.6 4.872q.685.665 1.65.665.57 0 1.092-.215.505-.207.895-.586l-.024-.024-.933-.705q-.176.137-.387.224-.306.125-.643.125-.486 0-.828-.33-.199-.194-.279-.434h3.453V3.03h-.005v-.155q0-.957-.703-1.605Q10.212.646 9.25.646q-.963 0-1.639.624-.703.648-.703 1.605v.371q0 .954.692 1.626ZM19.68.894h-2.043q-.949 0-1.62.67-.67.672-.67 1.62 0 .95.67 1.62.671.67 1.62.67h2.042V.895Zm3.659 0h2.042q.949 0 1.62.67.67.672.67 1.62 0 .95-.67 1.62-.671.67-1.62.67H23.34V.895Zm-1.151.003H20.83v4.575h1.358V.897ZM8.41 2.137q-.186.173-.265.393h2.207q-.078-.22-.265-.392-.337-.311-.838-.311-.501 0-.839.31Zm9.226 2.158h.862v-2.22h-.862q-.46 0-.785.324-.325.325-.325.785t.325.785q.325.326.785.326Zm7.744 0h-.862v-2.22h.862q.46 0 .785.324.325.325.325.785t-.325.785q-.325.326-.785.326Z" fill-rule="evenodd" fill="#FFF"/></svg>