<svg xmlns="http://www.w3.org/2000/svg" xmlns:xlink="http://www.w3.org/1999/xlink" fill="none" version="1.1" width="536.90625" height="536.90625" viewBox="0 0 536.90625 536.90625"><g><g><g><g><path d="M536.906125,268.453125Q536.906125,191.902125,496.748125,127.148125L463.684125,147.654125Q498.000125,202.987125,498.000125,268.453125Q498.000125,315.167125,479.969125,357.797125Q462.547125,398.987125,430.767125,430.767125Q398.988125,462.547125,357.797125,479.969125Q315.167125,498.000125,268.453125,498.000125Q221.739125,498.000125,179.109125,479.969125Q137.919125,462.547125,106.138925,430.767125Q74.35922500000001,398.987125,56.937125,357.797125Q38.906225,315.167125,38.906225,268.453125Q38.906225,221.739125,56.937225,179.109125Q74.35922500000001,137.919125,106.138925,106.138925Q137.919125,74.35922500000001,179.109125,56.937125Q221.739125,38.906225,268.453125,38.906225Q321.123125,38.906225,368.163125,61.629725L385.086125,26.596845000000002Q330.028125,0.000025000000000829914,268.453125,0.000025000000000829914Q213.849125,0.000025000000000829914,163.953125,21.104335Q115.773625,41.482524999999995,78.628125,78.628125Q41.482524999999995,115.773625,21.104365,163.953125Q0.000025000000000829914,213.849125,0.000025000000000829914,268.453125Q0.000025000000000829914,323.057125,21.104335,372.953125Q41.482524999999995,421.133125,78.628125,458.278125Q115.773725,495.424125,163.953125,515.8021249999999Q213.849125,536.906125,268.453125,536.906125Q323.057125,536.906125,372.953125,515.8021249999999Q421.133125,495.424125,458.278125,458.278125Q495.424125,421.133125,515.8021249999999,372.953125Q536.906125,323.057125,536.906125,268.453125Z" fill-rule="evenodd" fill="#002E33" fill-opacity="1"/></g><g><ellipse cx="221.6326084136963" cy="315.2736358642578" rx="176.64102172851562" ry="176.64102172851562" fill-opacity="0" stroke-opacity="1" stroke="#002E33" fill="none" stroke-width="38.90625"/></g><g><ellipse cx="181.19672012329102" cy="368.47877502441406" rx="114.92308044433594" ry="119.17948913574219" fill-opacity="0" stroke-opacity="1" stroke="#002E33" fill="none" stroke-width="33.71875"/></g><g><ellipse cx="449.35057830810547" cy="89.68389129638672" rx="68.1025619506836" ry="70.23076629638672" fill-opacity="0" stroke-opacity="1" stroke="#002E33" fill="none" stroke-width="38.90625"/></g></g></g></g></svg>