<svg xmlns="http://www.w3.org/2000/svg" fill="none" width="40" height="40" viewBox="0 0 40 40"><path d="M18 10.5h7.333q2.278 0 3.89 1.61 1.61 1.612 1.61 3.89v1.667q0 .073-.007.147-.007.073-.022.145-.014.073-.035.143-.022.07-.05.139-.028.068-.063.133t-.075.126q-.041.061-.088.118-.047.057-.099.11-.052.051-.109.098-.057.047-.118.088-.062.04-.127.076-.065.034-.133.062-.068.029-.138.05t-.143.036q-.072.014-.146.021-.073.008-.147.008-.073 0-.147-.008-.073-.007-.145-.021-.073-.015-.143-.036-.07-.021-.139-.05-.068-.028-.133-.062-.065-.035-.126-.076-.061-.041-.118-.088-.057-.047-.11-.099-.051-.052-.098-.109-.047-.057-.088-.118-.04-.061-.076-.126-.034-.065-.063-.133-.028-.068-.049-.139-.021-.07-.036-.143-.014-.072-.021-.145-.008-.074-.008-.147V16q0-2.5-2.5-2.5H18q-.074 0-.147-.007t-.145-.022q-.073-.014-.143-.036-.07-.021-.139-.05-.068-.027-.133-.062t-.126-.076q-.061-.04-.118-.087-.057-.047-.11-.1-.052-.051-.098-.108-.047-.057-.088-.119-.041-.06-.076-.126-.034-.065-.063-.133-.028-.068-.05-.139-.02-.07-.035-.142-.014-.073-.022-.146-.007-.073-.007-.147t.007-.147q.008-.073.022-.146.014-.072.036-.142.021-.07.05-.139.028-.068.062-.133.035-.065.076-.126.04-.062.088-.119.046-.057.099-.109.052-.052.109-.099.057-.046.118-.087.061-.041.126-.076.065-.035.133-.063.068-.028.139-.05.07-.02.143-.035.072-.015.145-.022.073-.007.147-.007ZM9.167 23q0-.074.007-.147t.021-.146q.015-.072.036-.142.022-.07.05-.139.028-.068.063-.133t.075-.126q.041-.062.088-.119.047-.057.099-.109.052-.052.11-.099.056-.046.117-.087.062-.041.127-.076.065-.035.133-.063.068-.028.138-.05.07-.02.143-.035.072-.015.146-.022.073-.007.147-.007.073 0 .147.007.073.007.145.022.073.014.143.036.07.021.139.05.068.027.133.062t.126.076q.061.04.118.087.057.047.11.1.051.051.098.108.047.057.088.119.04.06.076.126.034.065.062.133.029.068.05.139.021.07.036.142.014.073.021.146.008.073.008.147v2.333q0 1.036.732 1.768t1.768.732H21.5q.074 0 .147.008.073.007.146.021.072.015.143.036.07.021.138.05.068.028.133.062.065.035.126.076.062.041.119.088.057.047.109.099.052.052.099.109.046.057.087.118.041.061.076.126.035.065.063.133.028.068.05.139.021.07.035.143.015.072.022.145.007.074.007.147 0 .074-.007.147-.007.074-.022.146-.014.072-.035.143-.022.07-.05.138-.028.068-.063.133t-.076.127q-.04.06-.087.118-.047.057-.1.109-.051.052-.108.099-.057.047-.118.088-.062.04-.127.075-.065.035-.133.063-.068.028-.138.05-.07.021-.143.035-.072.015-.146.022-.073.007-.147.007h-6.833q-2.278 0-3.89-1.61-1.61-1.611-1.61-3.89V23Z" fill-rule="evenodd" fill="#303133"/><rect x="8.833" y="9.5" width="9" height="9" rx="2.5" stroke="#303133" stroke-width="3"/><rect x="22.167" y="22.167" width="9" height="9" rx="2.5" stroke="#303133" stroke-width="3"/><circle cx="13.333" cy="14" fill="#303133" r="1.333"/><circle cx="26.667" cy="26.667" fill="#303133" r="1.333"/></svg>