<svg xmlns="http://www.w3.org/2000/svg" fill="none" width="30.243" height="26.235" viewBox="0 0 30.243 26.235"><path d="m1.463 14.449 2.634 1.502v-.002q.286.163.615.163.06 0 .121-.006t.12-.018q.06-.012.119-.03.058-.017.114-.04.057-.024.11-.052.054-.03.105-.063.05-.034.098-.072.047-.04.09-.082.043-.043.081-.09.04-.047.073-.098.034-.05.063-.104.028-.054.052-.11.023-.057.04-.115.018-.058.03-.118.012-.06.018-.12.006-.061.006-.122 0-.164-.043-.323-.042-.158-.125-.3-.082-.142-.199-.257-.116-.116-.259-.197l.001-.002-2.634-1.502q-.209-.12-.209-.36v-5.99q0-.241.21-.36l5.283-3.014q.205-.117.41 0l5.283 3.014q.21.119.21.36v5.99q0 .24-.21.36l-2.634 1.502.001.002q-.142.081-.259.197-.116.115-.199.257-.082.142-.125.3-.043.159-.043.323 0 .061.006.122.006.06.018.12.012.06.03.118.018.058.04.115.024.056.053.11.029.053.062.104.034.05.073.098.039.047.082.09.043.043.09.082.047.038.098.072.05.034.104.063.054.028.11.052.056.023.115.04.058.018.118.03.06.012.12.018.06.006.121.006.33 0 .615-.163v.002l2.635-1.502q.115-.066.22-.136.106.07.22.136l2.635 1.502v-.002q.286.163.615.163.061 0 .122-.006.06-.006.12-.018.06-.012.118-.03.058-.017.115-.04.056-.024.11-.052.053-.03.104-.063.05-.034.098-.072.047-.04.09-.082.043-.043.082-.09.038-.047.072-.098.034-.05.063-.104.028-.054.052-.11.023-.057.04-.115.018-.058.03-.118.012-.06.018-.12.006-.061.006-.122 0-.164-.043-.323-.042-.158-.125-.3-.082-.142-.199-.257-.116-.116-.259-.197l.001-.002-2.634-1.502q-.209-.12-.209-.36v-5.99q0-.241.21-.36l5.283-3.014q.205-.117.41 0l5.283 3.014q.21.119.21.36v5.99q0 .24-.21.36l-2.634 1.502.001.002q-.142.081-.259.197-.116.115-.199.257-.082.142-.125.3-.042.159-.042.323 0 .061.006.122.006.06.017.12.012.06.03.118.018.058.041.115.023.056.052.11.029.053.063.104.033.05.072.098.039.047.082.09.043.043.09.082.047.038.098.072.05.034.104.063.054.028.11.052.056.023.115.04.058.018.118.03.06.012.12.018.06.006.122.006.328 0 .614-.163l.001.002 2.634-1.502q1.463-.834 1.463-2.518v-5.99q0-1.684-1.463-2.519L23.497.41q-1.436-.818-2.872 0l-5.283 3.013q-.115.066-.22.136-.106-.07-.221-.136L9.618.41q-1.436-.818-2.872 0L1.463 3.422Q0 4.257 0 5.94v5.991q0 1.684 1.463 2.518Zm10.99-2.009q.143-.081.26-.197.116-.115.198-.257.083-.142.125-.3.043-.159.043-.323 0-.06-.006-.122-.006-.06-.018-.12-.012-.06-.03-.118-.017-.058-.04-.115-.024-.056-.052-.11-.029-.053-.063-.104-.034-.05-.072-.098-.039-.047-.082-.09-.043-.043-.09-.082-.047-.038-.098-.072-.05-.034-.104-.063-.054-.028-.11-.052-.057-.023-.115-.04-.058-.018-.118-.03-.06-.012-.12-.018-.06-.006-.122-.006-.329 0-.614.163l-.001-.002-2.634 1.502q-1.463.834-1.463 2.518v5.99q0 1.685 1.463 2.519l5.283 3.013q1.436.819 2.872 0l5.283-3.013q1.463-.834 1.463-2.518v-5.991q0-1.684-1.463-2.518l-2.634-1.502-.001.002q-.286-.163-.614-.163-.061 0-.122.006-.06.006-.12.018-.06.012-.118.03-.059.017-.115.04-.056.024-.11.052-.054.03-.104.063-.05.034-.098.072-.047.04-.09.082-.043.043-.082.09-.039.047-.072.098-.034.05-.063.104-.029.054-.052.11-.023.057-.04.115-.019.058-.03.118-.012.06-.018.12-.006.061-.006.122 0 .164.042.323.043.158.125.3.083.142.2.257.116.116.258.197v.002l2.633 1.502q.21.12.21.36v5.99q0 .241-.21.36l-5.283 3.014q-.205.117-.41 0L9.82 20.655q-.208-.12-.208-.36v-5.991q0-.24.208-.36l2.634-1.502v-.002Z" fill-rule="evenodd" fill="#002E33"/></svg>