<svg xmlns="http://www.w3.org/2000/svg" fill="none" width="25.455" height="25.455" viewBox="0 0 25.455 25.455"><path d="M17.061 5.169q.124 0 .247-.013.123-.012.244-.037.121-.024.24-.061.118-.037.232-.086.114-.048.223-.108.11-.06.212-.13.103-.071.198-.152.096-.08.183-.17.088-.09.166-.188.078-.098.147-.204.069-.105.127-.217.058-.112.106-.23.047-.117.083-.238.036-.122.06-.246.024-.125.036-.251.012-.127.012-.254t-.012-.253q-.012-.126-.036-.25-.024-.125-.06-.247-.036-.121-.083-.239-.048-.117-.106-.229-.058-.112-.127-.217-.069-.106-.147-.204-.078-.098-.166-.188-.087-.09-.183-.17-.095-.08-.198-.151-.103-.071-.212-.13-.109-.06-.223-.11-.114-.048-.232-.085-.119-.037-.24-.061-.121-.025-.244-.038Q17.185 0 17.06 0q-.123 0-.246.012-.123.013-.245.038-.12.024-.239.061-.118.037-.232.086-.115.048-.224.108t-.211.13q-.103.071-.199.152-.095.08-.183.17-.087.09-.165.188-.079.098-.148.204-.068.105-.127.217-.058.112-.105.23-.047.117-.083.238-.036.122-.06.246-.024.125-.036.251-.012.127-.012.253 0 .408.122.796.122.388.355.719l-.354-.2-2.342 4.367.512.288q-.385-.083-.778-.083-.536 0-1.052.153-.515.154-.968.449L5.58 4.346l-.312.31q.107-.365.107-.746 0-.127-.012-.254-.012-.126-.036-.25-.024-.125-.06-.246-.036-.122-.083-.24-.048-.117-.106-.229-.058-.111-.127-.217t-.147-.204q-.078-.098-.166-.188-.087-.09-.183-.17-.095-.08-.198-.151-.103-.07-.212-.13t-.223-.109q-.114-.049-.232-.085-.119-.037-.24-.062t-.244-.037q-.123-.013-.247-.013-.123 0-.246.013-.123.012-.245.037-.12.025-.24.062-.117.036-.232.085-.114.049-.223.108-.109.06-.212.13-.102.071-.198.152-.095.08-.183.17-.087.09-.166.188-.078.098-.147.204-.068.105-.127.217-.058.112-.105.23-.047.117-.083.239-.036.121-.06.246-.024.124-.037.25-.012.127-.012.254t.012.253q.013.126.037.251t.06.246q.036.122.083.239.047.117.105.23.059.111.127.217.069.105.147.203.079.098.166.188.088.09.183.17.096.081.198.152.103.07.212.13.11.06.223.109.115.048.233.085.118.037.24.062.12.024.244.037.123.012.246.012.327 0 .643-.086l-.044.044 4.57 4.845.628-.622q-.183.391-.276.815-.094.423-.094.857 0 .628.193 1.223l-.088-.097-5.319 5.032.073.082q-.31-.083-.63-.083-.124 0-.247.013-.123.012-.244.037-.121.025-.24.062-.118.037-.232.085-.114.049-.223.109-.11.06-.212.13-.103.07-.198.151-.096.08-.183.17-.088.09-.166.188-.078.098-.147.204-.069.106-.127.218-.058.112-.105.229-.048.117-.084.239-.036.121-.06.246-.024.124-.036.25Q0 20.962 0 21.09t.012.253q.012.127.036.251.024.125.06.246.036.122.084.239.047.117.105.23.058.111.127.217.069.105.147.203.078.099.166.188.087.09.183.17.095.081.198.152.103.07.212.13t.223.109q.114.048.233.085.118.037.239.062.121.024.244.037.123.012.247.012.123 0 .246-.012.123-.013.245-.037.12-.025.24-.062.117-.037.232-.085.114-.049.223-.109t.212-.13q.102-.07.198-.151.095-.08.183-.17.087-.09.166-.189.078-.098.147-.203.068-.106.127-.218.058-.112.105-.23.048-.116.083-.238.036-.121.06-.246.025-.125.037-.25.012-.127.012-.254 0-.221-.037-.44l.081.09 5.239-4.955q.404.217.847.328.443.112.9.112.154 0 .308-.013l-.051.028 2.727 5.277.434-.236q-.128.169-.228.357-.1.19-.168.392-.068.203-.102.415-.035.212-.035.426 0 .127.012.253.013.127.037.251.024.125.06.246.036.122.083.24.047.116.105.228.059.112.127.218.069.105.147.204.079.098.166.188.088.09.183.17.096.08.198.151.103.07.212.13.11.06.223.109.115.048.233.085.118.037.24.062.12.025.244.037.123.013.246.013.124 0 .247-.013.123-.012.244-.037.121-.025.24-.062.118-.037.232-.085.114-.049.223-.109.11-.06.212-.13.103-.07.198-.151.096-.08.183-.17.088-.09.166-.188.078-.099.147-.204.069-.106.127-.218.058-.112.106-.229.047-.117.083-.239.036-.121.06-.246.024-.124.036-.25.012-.127.012-.254t-.012-.253q-.012-.127-.036-.251-.024-.125-.06-.246-.036-.122-.083-.239-.048-.117-.106-.23-.058-.111-.127-.217-.069-.105-.147-.204-.078-.098-.166-.187-.087-.09-.183-.17-.095-.081-.198-.152-.103-.07-.212-.13t-.223-.109q-.114-.048-.232-.085-.119-.037-.24-.062-.121-.024-.244-.037-.123-.012-.247-.012-.085 0-.17.005l.388-.21-2.716-5.257q.14-.173.259-.362l5.432.986.02-.115q.076.163.175.313.098.15.216.285.117.135.252.251.135.117.285.213.149.096.31.17.16.073.33.123t.344.076q.175.025.35.025.124 0 .247-.013.123-.012.245-.037.12-.024.24-.061.117-.037.232-.086.114-.048.223-.108t.212-.13q.102-.071.198-.152.095-.08.183-.17.087-.09.166-.188.078-.098.147-.204.068-.105.127-.217.058-.112.105-.23.047-.117.083-.238.036-.122.06-.246.024-.125.037-.251.012-.127.012-.254t-.012-.253q-.013-.126-.037-.25-.024-.125-.06-.247-.036-.121-.083-.239-.047-.117-.105-.229-.059-.112-.127-.217-.069-.106-.147-.204-.079-.098-.166-.188-.088-.09-.183-.17-.096-.08-.198-.151-.103-.071-.212-.13-.11-.06-.223-.11-.115-.048-.233-.085-.118-.037-.24-.061-.12-.025-.244-.038-.123-.012-.246-.012-.264 0-.523.056-.258.057-.5.167-.241.11-.455.27-.214.16-.39.36l-5.326-.965q-.114-.532-.368-1.011-.253-.479-.625-.868l.194.11 2.342-4.367-.37-.207q.072.004.143.004Zm-.37-2.32q-.114-.116-.114-.265 0-.148.114-.265.146-.15.37-.15.225 0 .371.15.114.117.114.265 0 .149-.114.266-.146.15-.37.15-.225 0-.371-.15ZM2.376 3.91q0 .15.114.266.146.15.37.15t.37-.15q.114-.117.114-.265 0-.149-.113-.265-.147-.15-.37-.15-.225 0-.371.15-.114.116-.114.265Zm10.459 8.438q0-.386-.255-.648-.222-.228-.519-.228-.297 0-.519.228-.255.262-.255.648 0 .387.255.649.222.228.52.228.296 0 .518-.228.255-.262.255-.649Zm9.62 1.857q0 .149.113.266.146.15.37.15.225 0 .372-.15.113-.117.113-.266 0-.148-.113-.265-.147-.15-.371-.15t-.37.15q-.114.117-.114.265ZM2.032 21.09q0 .148.113.265.147.15.37.15.225 0 .372-.15Q3 21.238 3 21.09q0-.149-.113-.265-.147-.15-.371-.15t-.37.15q-.114.116-.114.265Zm15.06 2.046q-.113-.116-.113-.265 0-.148.114-.265.146-.15.37-.15t.37.15q.114.117.114.265 0 .149-.113.265-.147.15-.37.15-.225 0-.371-.15Z" fill-rule="evenodd" fill="#001F23"/></svg>